<svg width="8" height="12" viewBox="0 0 8 12" fill="none" xmlns="http://www.w3.org/2000/svg">
<path d="M0.166992 5.9997C0.166937 6.91563 0.382563 7.8187 0.796414 8.63579C1.21027 9.45289 1.81071 10.161 2.54914 10.7029C3.28756 11.2448 4.14321 11.6052 5.04682 11.7549C5.95043 11.9047 6.87659 11.8395 7.75033 11.5647C6.56592 11.1925 5.53116 10.4521 4.79656 9.45123C4.06197 8.45036 3.66586 7.24122 3.66586 5.9997C3.66586 4.75819 4.06197 3.54905 4.79656 2.54818C5.53116 1.54731 6.56592 0.806919 7.75033 0.434704C6.87659 0.159927 5.95043 0.0947575 5.04682 0.244473C4.14321 0.394188 3.28756 0.75458 2.54914 1.29647C1.81071 1.83836 1.21027 2.54652 0.796414 3.36362C0.382563 4.18071 0.166937 5.08378 0.166992 5.9997Z" fill="white"/>
</svg>
