<svg width="82" height="80" viewBox="0 0 82 80" fill="none" xmlns="http://www.w3.org/2000/svg">
<path d="M40.9784 7.50064C22.4629 7.25376 7.34722 22.1756 7.5973 40.4538C7.84421 57.9835 22.303 72.2569 40.0604 72.5007C58.579 72.7507 73.6915 57.8288 73.4383 39.5506C73.1945 22.0178 58.7357 7.74439 40.9784 7.50064ZM60.988 58.6335C60.925 58.7008 60.8477 58.7536 60.7617 58.7881C60.6757 58.8226 60.583 58.8381 60.4903 58.8333C60.3975 58.8285 60.307 58.8037 60.2251 58.7605C60.1431 58.7173 60.0718 58.6569 60.0162 58.5835C58.6005 56.7549 56.8667 55.1894 54.8959 53.96C50.8661 51.4069 45.76 50.0007 40.5194 50.0007C35.2788 50.0007 30.1727 51.4069 26.1429 53.96C24.1721 55.1889 22.4383 56.7539 21.0225 58.5819C20.9669 58.6553 20.8956 58.7158 20.8137 58.7589C20.7318 58.8021 20.6412 58.827 20.5485 58.8317C20.4558 58.8365 20.3631 58.8211 20.2771 58.7865C20.191 58.752 20.1138 58.6992 20.0507 58.6319C15.4063 53.6825 12.7754 47.2152 12.6622 40.4694C12.4042 25.2647 25.0428 12.5381 40.4513 12.5006C55.8598 12.4631 68.3765 24.8147 68.3765 40.0006C68.3818 46.9091 65.7428 53.5644 60.988 58.6335V58.6335Z" fill="#242424"/>
<path d="M40.5195 22.5C37.3982 22.5 34.5761 23.6547 32.5707 25.7531C30.5653 27.8516 29.5634 30.7531 29.7898 33.8672C30.2488 40 35.062 45 40.5195 45C45.977 45 50.7808 40 51.2493 33.8687C51.4835 30.7844 50.4895 27.9094 48.4509 25.7719C46.4376 23.6625 43.6202 22.5 40.5195 22.5Z" fill="#242424"/>
</svg>
