<svg width="10" height="10" viewBox="0 0 12 12"  xmlns="http://www.w3.org/2000/svg">
<path d="M1.39091 9.85753L2.16 10.6301L3.14182 9.64931L2.36727 8.87123L1.39091 9.85753ZM5.45455 12C5.62909 12 6.54545 12 6.54545 12V10.3836H5.45455V12ZM6 2.71233C5.13202 2.71233 4.29959 3.05871 3.68583 3.67526C3.07208 4.29182 2.72727 5.12805 2.72727 6C2.72727 6.87194 3.07208 7.70818 3.68583 8.32473C4.29959 8.94129 5.13202 9.28767 6 9.28767C6.86798 9.28767 7.70041 8.94129 8.31417 8.32473C8.92792 7.70818 9.27273 6.87194 9.27273 6C9.27273 4.18082 7.80545 2.71233 6 2.71233ZM10.3636 6.54794H12V5.45205H10.3636V6.54794ZM8.85818 9.64931L9.84 10.6301L10.6091 9.85753L9.63273 8.87123L8.85818 9.64931ZM10.6091 2.14247L9.84 1.36986L8.85818 2.35068L9.63273 3.12877L10.6091 2.14247ZM6.54545 0H5.45455V1.61644H6.54545V0ZM1.63636 5.45205H0V6.54794H1.63636V5.45205ZM3.14182 2.35068L2.16 1.36986L1.39091 2.14247L2.36727 3.12877L3.14182 2.35068Z" fill="#F59E0B"/>
</svg>
